<svg xmlns="http://www.w3.org/2000/svg" viewBox="1.00004 0.136221 249.99895999999998 34.860779">
  <path d="M 83.0414 6.88318 L 83.0415 6.88376 C 83.0575 7.10007 83.0741 7.32439 83.0925 7.56727 C 83.1749 7.46334 83.2448 7.37365 83.3085 7.29185 L 83.3091 7.29115 C 83.3883 7.18947 83.458 7.09999 83.5305 7.0105 C 84.5869 5.70839 85.9367 4.74751 87.3137 3.82705 C 87.8283 3.48581 88.3656 3.1715 88.9163 2.89761 C 89.1625 2.77643 89.4223 2.68522 89.6823 2.59397 L 89.6824 2.59395 C 89.8944 2.51952 90.1065 2.44507 90.3113 2.35431 C 90.6635 2.19716 93.0652 1.31262 93.6115 1.25874 C 93.8844 1.22957 94.1562 1.20153 94.428 1.17349 L 94.4285 1.17343 L 94.4286 1.17342 C 94.7006 1.14536 94.9726 1.1173 95.2457 1.08811 C 95.3044 1.08362 97.187 1.07913 98.3337 1.65835 C 99.3133 2.15226 100.031 2.94251 100.528 3.92583 C 100.564 4.00068 100.602 4.07438 100.638 4.14578 C 100.674 4.21573 100.709 4.28346 100.74 4.3479 C 101.302 3.87547 101.982 3.18549 102.435 2.72623 L 102.483 2.6776 C 103.498 1.64488 105.868 0.661558 107.358 0.226022 C 108.221 -0.0254214 109.142 -0.0837922 110.049 0.136221 C 110.208 0.174153 110.37 0.206772 110.531 0.23938 L 110.531 0.239386 C 110.905 0.314851 111.278 0.39026 111.625 0.531346 C 112.5 0.890551 113.313 1.35752 113.995 2.05797 C 115.331 3.42744 116.049 5.08876 116.41 6.90723 C 116.735 8.5461 116.685 10.2164 116.559 11.8732 C 116.497 12.7031 116.412 13.533 116.328 14.3628 C 116.26 15.0371 116.191 15.7114 116.135 16.3858 C 116.049 17.402 115.973 18.4183 115.898 19.4341 C 115.814 20.5591 115.731 21.6834 115.633 22.8065 C 115.517 24.1423 115.387 25.4764 115.256 26.8109 L 115.256 26.8111 L 115.256 26.8113 L 115.256 26.8115 L 115.256 26.8117 L 115.256 26.8118 L 115.256 26.8126 L 115.255 26.8133 L 115.255 26.8141 L 115.255 26.8148 L 115.255 26.8156 C 115.168 27.709 115.08 28.6025 114.997 29.4967 C 114.965 29.838 114.821 29.9412 114.491 29.8829 C 113.886 29.7801 113.281 29.6829 112.677 29.5858 L 112.677 29.5857 L 112.676 29.5857 C 112.199 29.509 111.722 29.4323 111.245 29.353 L 111.025 29.3164 C 110.426 29.2169 109.827 29.1174 109.232 28.9893 C 109.128 28.9669 108.984 28.7693 108.988 28.6571 C 109.02 27.7725 109.074 26.8835 109.146 25.999 C 109.218 25.0519 109.313 24.1093 109.408 23.1667 L 109.408 23.1657 C 109.46 22.6375 109.514 22.1092 109.568 21.581 L 109.569 21.5748 C 109.66 20.6907 109.75 19.8067 109.832 18.9226 C 109.895 18.2454 109.949 17.5682 110.002 16.8917 L 110.002 16.8914 L 110.003 16.8911 L 110.003 16.8908 L 110.003 16.8905 L 110.003 16.8902 L 110.003 16.8888 L 110.003 16.8874 C 110.049 16.3004 110.096 15.714 110.148 15.1285 C 110.187 14.6989 110.233 14.2702 110.279 13.8412 L 110.279 13.841 C 110.341 13.2657 110.402 12.6899 110.446 12.1112 C 110.555 10.6879 110.609 9.26451 110.157 7.87709 C 109.728 6.5615 108.844 5.8386 107.449 5.58715 C 106.419 5.40306 104.663 5.81615 103.905 6.37292 C 103.169 6.91621 102.826 7.69299 102.568 8.53712 C 102.022 10.3377 101.869 12.1871 101.716 14.0466 V 14.0467 L 101.693 14.3248 C 101.618 15.2173 101.528 16.1084 101.438 16.9989 L 101.438 16.9999 L 101.437 17.0008 L 101.437 17.0018 L 101.437 17.0027 L 101.437 17.0037 C 101.363 17.7379 101.288 18.4717 101.223 19.2055 C 101.083 20.7905 100.966 22.3755 100.853 23.9605 C 100.8 24.6852 100.753 25.4107 100.706 26.1364 C 100.643 27.1012 100.58 28.0662 100.505 29.0298 C 100.496 29.133 100.325 29.2408 100.207 29.3081 C 100.161 29.3363 99.2891 29.4461 98.2073 29.5824 L 98.2072 29.5824 C 96.5238 29.7945 94.3329 30.0705 93.9591 30.2017 C 93.6882 30.296 93.6385 30.1792 93.6476 29.9412 C 93.6543 29.7346 93.6622 29.5277 93.67 29.3206 C 93.6938 28.6954 93.7176 28.0688 93.7108 27.4448 C 93.7018 26.8521 93.6972 24.387 93.7243 23.745 C 93.774 22.6 93.8101 21.455 93.8372 20.3101 C 93.8452 20.0067 93.8461 19.7034 93.847 19.4 C 93.8481 19.0209 93.8492 18.6417 93.8643 18.2626 C 93.8793 17.8826 93.9081 17.5026 93.9369 17.1218 V 17.1217 V 17.1216 V 17.1216 C 93.9602 16.8141 93.9836 16.5061 93.9997 16.1972 C 94.025 15.7305 94.0415 15.2639 94.0581 14.7984 L 94.0581 14.7979 L 94.0581 14.7973 L 94.0581 14.7968 L 94.0581 14.7963 C 94.0681 14.5144 94.0781 14.233 94.09 13.9521 C 94.1026 13.6502 94.118 13.3482 94.1335 13.046 C 94.1568 12.5887 94.1802 12.1307 94.1938 11.6712 C 94.2164 10.8675 94.1938 10.0593 93.9365 9.29145 C 93.5889 8.25874 92.4828 7.72891 91.4129 8.00281 C 90.51 8.23629 89.0834 8.75714 88.2075 9.08042 C 87.0563 9.498 85.4762 11.1683 84.6456 12.0977 C 83.4943 13.3819 82.921 14.9579 82.8623 16.7135 C 82.8263 17.8064 82.7543 18.8954 82.6823 19.9856 L 82.6822 19.9859 L 82.6822 19.9861 L 82.6822 19.9864 L 82.6822 19.9866 L 82.6821 19.9869 C 82.6459 20.5356 82.6096 21.0846 82.5779 21.6346 C 82.4605 23.736 82.3476 25.8418 82.2393 27.9432 C 82.2105 28.4988 82.1836 29.0544 82.1568 29.61 C 82.112 30.5361 82.0672 31.4622 82.0136 32.3883 C 82.0045 32.514 81.8691 32.7071 81.7562 32.7341 C 81.1566 32.8873 80.5544 33.0281 79.9524 33.169 L 79.9522 33.169 L 79.9516 33.1692 C 79.4072 33.2965 78.8629 33.4238 78.3207 33.5602 C 77.8072 33.6907 77.2973 33.8374 76.7865 33.9843 L 76.7864 33.9843 C 76.4888 34.0699 76.1909 34.1556 75.8918 34.2382 C 75.811 34.2599 75.7302 34.2751 75.6288 34.2943 L 75.6285 34.2943 L 75.6285 34.2943 L 75.6281 34.2944 L 75.6279 34.2944 C 75.5822 34.303 75.5324 34.3124 75.4765 34.3235 C 75.4765 34.2094 75.4752 34.0986 75.474 33.9902 C 75.4712 33.7446 75.4685 33.511 75.481 33.2774 C 75.51 32.6482 75.5415 32.019 75.573 31.3898 C 75.6151 30.5507 75.6571 29.7117 75.6932 28.8726 C 75.7338 27.9343 75.7711 26.9949 75.8083 26.0554 V 26.0553 V 26.0553 V 26.0552 V 26.0552 V 26.0551 C 75.8456 25.1156 75.8828 24.176 75.9234 23.2376 C 75.9753 22.046 76.0295 20.8555 76.0836 19.665 L 76.0842 19.6531 C 76.1382 18.4656 76.1922 17.2781 76.244 16.0894 C 76.3478 13.7187 76.4426 11.3524 76.5374 8.98164 C 76.5449 8.77209 76.5455 8.56115 76.5461 8.34959 C 76.5465 8.18038 76.547 8.01077 76.551 7.84117 C 76.56 7.35624 76.885 7.08683 77.3862 7.07785 C 77.5847 7.07472 77.7811 7.03656 77.9768 6.99853 C 78.0614 6.9821 78.1459 6.96568 78.2304 6.95213 C 78.3459 6.93256 78.4617 6.91563 78.5775 6.89872 C 78.8601 6.85745 79.1423 6.81623 79.4177 6.73661 C 80.0678 6.55252 82.1264 6.14392 82.5147 6.15739 C 82.5953 6.15739 82.6827 6.14889 82.7822 6.13921 C 82.8444 6.13316 82.9113 6.12665 82.9842 6.12147 C 83.0033 6.36907 83.0212 6.61036 83.0399 6.86207 L 83.0409 6.87586 L 83.0412 6.88055 L 83.0414 6.88318 Z M 138.215 16.3622 C 138.144 16.3768 138.072 16.3915 137.998 16.4081 C 137.99 16.3676 137.981 16.3345 137.975 16.3069 C 137.96 16.249 137.952 16.2155 137.958 16.1881 C 138.011 15.401 138.066 14.615 138.12 13.829 L 138.123 13.7994 C 138.178 13.0036 138.233 12.2077 138.287 11.4107 C 138.303 11.1779 138.314 10.9447 138.324 10.7116 C 138.346 10.2253 138.368 9.73953 138.441 9.25995 C 138.522 8.72114 138.369 8.51909 137.84 8.51011 L 137.827 8.50991 L 137.827 8.50991 C 136.328 8.48752 134.825 8.46507 133.326 8.42031 C 133.005 8.40684 132.892 8.51011 132.888 8.81543 C 132.883 9.29138 132.861 9.76733 132.838 10.2433 C 132.808 10.8728 132.778 11.5025 132.749 12.1325 C 132.662 13.9738 132.576 15.8163 132.481 17.6564 C 132.414 19.0285 132.335 20.3984 132.256 21.7693 C 132.224 22.3273 132.192 22.8855 132.161 23.444 C 132.116 24.2927 132.066 25.1413 132.016 25.9899 C 132.003 26.2067 131.989 26.4237 131.976 26.641 L 131.975 26.6428 C 131.933 27.3159 131.89 27.9909 131.863 28.666 C 131.847 29.0841 131.851 29.5044 131.855 29.9283 V 29.9285 V 29.9286 V 29.9287 V 29.9289 V 29.929 V 29.9292 V 29.9293 V 29.9295 V 29.9296 V 29.9307 L 131.855 29.9336 C 131.857 30.1224 131.858 30.312 131.858 30.5024 C 131.938 30.5024 132.009 30.5012 132.074 30.5002 C 132.19 30.4983 132.288 30.4967 132.387 30.5024 L 133.057 30.5336 C 134.174 30.5853 135.292 30.6371 136.409 30.7045 C 136.761 30.7224 136.924 30.6236 136.969 30.2644 C 136.999 30.0207 137.062 29.781 137.129 29.5264 L 137.129 29.5263 L 137.129 29.5261 C 137.161 29.4009 137.195 29.2721 137.226 29.1374 C 137.511 29.2359 137.782 29.333 138.049 29.4285 C 139.86 30.0774 141.456 30.6492 145.687 31.0367 C 146.313 31.0957 146.949 31.0064 147.584 30.9171 C 147.819 30.8841 148.054 30.8512 148.288 30.8257 C 149.412 30.7 150.4 30.233 151.24 29.4966 C 152.992 27.961 153.895 26.0168 154.089 23.7134 C 154.265 21.5852 153.89 19.6185 152.667 17.8225 C 151.936 16.7539 151.005 15.9052 149.805 15.4607 C 148.157 14.8501 145.484 14.6839 143.759 15.0656 C 142.626 15.317 138.843 16.2106 138.567 16.2824 C 138.453 16.3135 138.336 16.3375 138.215 16.3622 Z M 145.714 18.249 C 147.204 18.1233 148.22 18.698 148.671 20.072 C 148.96 20.9431 148.897 24.9123 148.586 25.9181 C 148.27 26.9553 146.897 27.6916 145.525 27.6782 C 145.156 27.6746 144.787 27.6757 144.418 27.6769 C 143.385 27.68 142.352 27.6831 141.33 27.5839 C 139.416 27.3953 137.822 26.3446 137.389 24.5306 C 137.005 22.9277 137.028 21.2484 138.287 19.8924 C 138.987 19.1426 139.895 18.7205 140.861 18.4466 C 141.798 18.1814 143.895 18.2226 145.012 18.2446 C 145.37 18.2516 145.628 18.2567 145.714 18.249 Z M 248.571 17.5897 C 248.959 16.8321 249.347 16.0746 249.726 15.3127 C 250.168 14.4282 250.99 12.3089 250.999 12.1472 C 250.958 12.1417 250.917 12.1356 250.877 12.1293 L 250.831 12.1222 C 250.69 12.1003 250.551 12.0786 250.412 12.0754 C 250.161 12.0696 249.91 12.0731 249.658 12.0767 C 249.129 12.0841 248.601 12.0916 248.087 12.0125 C 247.505 11.9227 247.22 12.0978 247.017 12.5783 C 246.872 12.921 246.728 13.2638 246.583 13.6065 C 246.088 14.7812 245.592 15.9553 245.089 17.1267 C 244.831 17.7277 244.564 18.3247 244.303 18.9097 L 244.302 18.9105 L 244.299 18.919 L 244.297 18.9232 C 244.168 19.2122 244.04 19.4982 243.915 19.7803 C 243.333 19.7938 243.139 19.466 242.976 19.0439 C 242.1 16.7944 240.308 14.6302 238.633 12.8252 C 238.461 12.6406 238.308 12.4682 238.172 12.3132 L 238.171 12.3125 C 237.752 11.8385 237.477 11.5276 237.215 11.5276 C 236.468 11.6629 235.553 11.7157 234.69 11.7654 C 234.264 11.79 233.851 11.8138 233.477 11.8464 C 233.197 11.8711 232.917 11.8969 232.638 11.9227 C 232.358 11.9485 232.078 11.9743 231.798 11.999 C 231.983 12.2867 232.205 12.4744 232.424 12.6591 C 232.471 12.6993 232.519 12.7394 232.565 12.7803 C 233.07 13.2172 233.571 13.6582 234.071 14.099 L 234.072 14.0995 L 234.072 14.0997 L 234.072 14.0998 C 234.961 14.882 235.849 15.6638 236.755 16.4218 C 237.965 17.432 238.918 18.6443 239.635 20.0228 C 240.257 21.216 240.783 22.4614 241.308 23.7033 L 241.308 23.7038 L 241.333 23.763 C 241.446 24.0369 241.441 24.4096 241.36 24.7014 C 241.096 25.637 240.82 26.5701 240.544 27.5033 C 240.297 28.3392 240.05 29.1752 239.811 30.0132 C 239.784 30.1119 239.96 30.3813 240.06 30.3903 C 240.723 30.4451 241.388 30.4832 242.053 30.5212 L 242.053 30.5212 C 242.424 30.5425 242.795 30.5638 243.166 30.5879 C 243.545 30.6148 243.676 30.4442 243.744 30.0805 C 243.795 29.8079 243.842 29.5335 243.889 29.2587 C 244.052 28.3161 244.215 27.3695 244.529 26.4795 C 245.143 24.7418 245.897 23.0491 246.683 21.3788 C 247.285 20.1022 247.928 18.8465 248.571 17.5911 L 248.571 17.591 L 248.571 17.5909 L 248.571 17.5908 L 248.571 17.5906 L 248.571 17.5905 L 248.571 17.5904 L 248.571 17.5903 L 248.571 17.5902 L 248.571 17.59 L 248.571 17.5897 Z M 176.585 19.7219 C 177.01 18.0022 177.94 16.8079 179.614 16.2331 C 179.904 16.1339 180.186 16.0126 180.468 15.8916 C 180.824 15.7389 181.179 15.5865 181.547 15.4788 C 181.955 15.359 183.275 15.0399 184.502 14.743 L 184.502 14.743 L 184.506 14.7421 C 185.394 14.5274 186.233 14.3245 186.644 14.2171 C 186.987 14.1273 189.023 13.7322 190.625 13.7322 C 193.52 13.7322 194.364 13.9167 195.506 14.1665 L 195.506 14.1665 C 195.673 14.2031 195.847 14.241 196.034 14.28 C 197.628 14.6122 199.605 15.8874 199.758 17.5263 C 199.862 18.6411 199.806 19.7747 199.751 20.8961 V 20.8963 V 20.8964 V 20.8966 V 20.8967 V 20.8969 V 20.897 V 20.8972 V 20.8973 V 20.8975 L 199.736 21.2036 C 199.644 23.0563 199.525 24.9089 199.406 26.7633 L 199.406 26.7645 C 199.362 27.449 199.318 28.1337 199.275 28.8188 C 199.271 28.9176 199.266 29.0163 199.275 29.1151 C 199.361 29.9727 199.172 30.0805 198.291 29.8739 C 197.863 29.7759 197.42 29.7426 196.928 29.7057 C 196.699 29.6886 196.459 29.6706 196.205 29.6449 L 196.178 29.4529 C 196.128 29.0982 196.065 28.657 195.993 28.1587 C 195.883 28.2281 195.798 28.2948 195.716 28.3592 C 195.559 28.4825 195.413 28.5974 195.122 28.7065 C 193.831 29.1915 188.486 29.8784 187 29.9458 C 186.114 29.9874 184.724 30.0972 183.315 30.2086 L 183.315 30.2086 C 181.68 30.3379 180.019 30.4691 179.091 30.4981 C 177.935 30.534 176.838 30.1164 175.867 29.4653 C 174.915 28.8278 174.499 26.8072 174.933 25.6308 C 175.452 24.2165 176.468 23.2152 177.705 22.5596 C 179.222 21.7604 180.17 21.4102 181.899 21.1138 C 183.474 20.8444 184.355 20.6648 185.226 20.4852 C 186.337 20.2562 187.537 20.0677 188.657 19.9689 C 190.413 19.8162 192.088 19.6725 193.853 19.6142 C 194.144 19.6052 194.435 19.6005 194.726 19.5958 C 195.162 19.5888 195.598 19.5818 196.034 19.5603 C 196.183 19.5513 196.413 19.4346 196.454 19.3133 C 196.865 18.1818 196.088 16.9156 194.883 16.7719 C 194.728 16.7535 194.573 16.7341 194.418 16.7146 C 193.627 16.6151 192.833 16.5151 192.048 16.5564 C 190.765 16.6193 189.488 16.7989 188.224 17.0279 C 186.802 17.2838 185.384 17.5981 183.994 17.9932 C 183.61 18.1005 183.264 18.3428 182.919 18.5848 C 182.772 18.6875 182.626 18.79 182.477 18.8823 C 182.403 18.9286 182.333 18.9906 182.264 19.0523 L 182.264 19.0524 C 182.152 19.1523 182.041 19.2514 181.912 19.2819 C 181.195 19.448 180.468 19.5872 179.736 19.677 C 178.866 19.7841 177.986 19.8424 177.111 19.9005 L 177.111 19.9005 L 177.095 19.9015 C 176.994 19.9045 176.888 19.855 176.772 19.8016 L 176.772 19.8016 C 176.712 19.7738 176.65 19.745 176.585 19.7219 Z M 193.406 26.5244 C 194.093 26.4435 194.648 26.1472 195.104 25.6488 C 195.777 24.9079 196.043 24.0324 196.034 23.0401 C 196.029 22.4788 195.93 22.3351 195.37 22.3666 C 195.15 22.3781 194.704 22.3929 194.142 22.4115 L 194.142 22.4115 L 194.141 22.4115 C 192.514 22.4655 189.909 22.5519 188.973 22.6854 C 187.018 22.9682 185.077 23.3589 183.149 23.7899 C 182.084 24.0279 181.023 24.3512 180.143 25.0741 C 179.276 25.788 179.321 26.8701 180.301 27.355 C 180.608 27.5077 180.991 27.5975 181.334 27.5795 C 181.95 27.5461 182.564 27.4817 183.178 27.4172 C 183.555 27.3776 183.932 27.3381 184.31 27.3056 C 184.632 27.2787 184.954 27.2524 185.276 27.2261 L 185.278 27.2259 L 185.279 27.2259 C 186.248 27.1468 187.217 27.0676 188.179 26.9734 C 188.809 26.9102 189.946 26.8176 191.012 26.7309 C 192.068 26.6449 193.054 26.5646 193.406 26.5244 Z M 212.317 28.4468 L 212.317 28.4464 C 212.41 28.3441 212.508 28.2361 212.616 28.1228 L 212.625 28.2549 C 212.657 28.6957 212.681 29.0315 212.697 29.371 C 212.715 29.6853 212.86 29.8066 213.198 29.7976 C 214.399 29.7706 215.596 29.7706 216.796 29.7706 H 216.797 C 217.036 29.7706 217.276 29.7821 217.516 29.7936 C 217.795 29.807 218.075 29.8204 218.354 29.8155 C 218.788 29.8066 219.104 29.6763 218.941 29.1196 C 218.855 28.8187 218.824 28.491 218.819 28.1767 C 218.788 26.1876 218.761 24.1985 218.747 22.2049 C 218.737 21.1183 218.742 20.0293 218.747 18.9415 L 218.747 18.9362 V 18.935 C 218.749 18.573 218.75 18.2111 218.752 17.8495 C 218.752 17.6259 218.753 17.4023 218.754 17.1787 C 218.757 16.2843 218.76 15.3899 218.774 14.4955 C 218.783 13.9746 218.435 13.9252 218.061 13.9207 C 217.386 13.9096 216.713 13.9039 216.04 13.8981 C 215.077 13.8899 214.115 13.8816 213.153 13.8579 C 212.453 13.8399 212.3 13.9477 212.3 14.6436 C 212.3 15.0163 212.301 15.3901 212.302 15.7639 C 212.303 16.1377 212.304 16.5115 212.304 16.8842 C 212.304 17.4442 212.306 18.004 212.307 18.5636 L 212.307 18.581 V 18.5816 V 18.5822 V 18.5829 V 18.5835 V 18.5841 V 18.5848 V 18.5854 V 18.586 C 212.311 20.28 212.316 21.9721 212.282 23.6642 C 212.255 25.0785 211.844 26.2953 209.889 26.457 C 208.887 26.5378 208.033 26.0035 207.866 25.0291 C 207.744 24.3107 207.677 23.5744 207.672 22.847 C 207.659 20.0676 207.654 17.2838 207.708 14.5044 C 207.717 13.9701 207.501 13.9477 207.126 13.9387 C 206.788 13.93 206.45 13.9172 206.112 13.9044 C 205.398 13.8773 204.684 13.8502 203.97 13.8624 C 203.952 13.8626 203.934 13.8626 203.915 13.8626 L 203.865 13.8623 C 203.514 13.8598 203.072 13.8568 203.076 14.4595 C 203.082 15.1763 203.082 15.8922 203.082 16.608 V 16.6113 C 203.082 17.5311 203.082 18.4506 203.094 19.3717 C 203.1 19.8085 203.104 20.2456 203.108 20.6828 C 203.124 22.3213 203.139 23.9609 203.239 25.5949 C 203.338 27.2203 204.151 28.4595 205.604 29.3396 C 207.37 30.4037 210.097 30.4262 211.767 29.0028 C 211.958 28.8429 212.127 28.6567 212.317 28.4468 Z M 172.902 21.675 C 172.915 23.8212 172.915 23.8392 171.236 23.8616 C 170.116 23.876 168.997 23.88 167.878 23.8841 C 166.555 23.8888 165.233 23.8936 163.913 23.9155 C 163.334 23.9241 162.758 23.971 162.182 24.0178 L 162.182 24.0178 C 161.854 24.0444 161.527 24.0711 161.199 24.0906 C 160.82 24.1131 160.617 24.2612 160.639 24.6788 C 160.73 26.7083 161.985 27.8667 164.026 27.6871 L 164.053 27.6847 C 164.979 27.6047 165.92 27.5234 166.653 26.8699 C 166.83 26.7146 166.977 26.5278 167.124 26.3407 C 167.233 26.2034 167.341 26.0659 167.461 25.9405 C 167.615 25.7834 167.818 25.5813 168.012 25.5723 C 168.691 25.5326 169.369 25.5144 170.048 25.4962 C 170.444 25.4856 170.84 25.475 171.236 25.4601 C 172.017 25.4286 172.251 25.7205 172.017 26.4614 C 171.457 28.2394 170.12 29.2587 168.558 30.1297 C 167.263 30.8526 165.85 31.0233 164.454 31.0277 C 162.391 31.0367 160.323 30.7673 158.581 29.5011 C 157.682 28.8456 157.064 27.9296 156.703 26.8655 C 156.192 25.3613 156.048 23.8302 156.179 22.2407 C 156.31 20.6647 156.68 19.174 157.569 17.8719 C 158.748 16.1432 160.36 14.9578 162.459 14.5223 C 164.102 14.181 165.741 14.1047 167.312 14.8366 C 167.577 14.9605 167.849 15.0757 168.121 15.191 C 168.785 15.4726 169.451 15.7547 170.021 16.1656 C 172.093 17.6563 172.929 19.7846 172.902 21.675 Z M 167.606 20.7769 C 167.655 19.174 166.888 18.1637 165.664 17.8 C 164.915 17.5755 164.184 17.7327 163.452 17.8898 C 162.107 18.1727 161.299 19.0123 160.978 20.3279 C 160.883 20.7186 160.892 20.9565 161.457 20.9027 C 162.352 20.8163 163.259 20.802 164.16 20.7878 C 164.29 20.7857 164.42 20.7837 164.549 20.7814 C 165.255 20.7689 165.959 20.7717 166.673 20.7745 C 166.982 20.7757 167.292 20.7769 167.606 20.7769 Z M 229.285 14.1521 C 229.001 14.1509 228.715 14.1496 228.426 14.1496 C 228.426 13.7853 228.426 13.4281 228.426 13.0764 C 228.427 12.0413 228.428 11.0535 228.421 10.0682 C 228.417 9.76286 228.367 9.38121 227.929 9.54285 C 226.715 9.99185 225.514 10.4678 224.331 10.9886 C 224.119 11.0829 223.92 11.4152 223.888 11.6622 C 223.835 12.1068 223.843 12.5625 223.851 13.0162 V 13.0164 C 223.854 13.14 223.856 13.2634 223.857 13.3863 C 223.866 14.006 223.721 14.1541 223.085 14.1362 C 222.946 14.1323 222.807 14.125 222.667 14.1176 C 222.327 14.0998 221.986 14.0819 221.649 14.1137 C 221.459 14.1317 221.152 14.3741 221.143 14.5268 C 221.099 15.285 221.112 16.0431 221.125 16.8013 L 221.13 17.0861 C 221.139 17.5531 221.482 17.598 221.843 17.5935 C 222.051 17.5917 222.258 17.5885 222.466 17.5852 C 222.775 17.5804 223.085 17.5756 223.396 17.5756 C 223.708 17.5756 223.861 17.7148 223.861 18.0515 L 223.86 18.4256 L 223.859 18.6681 L 223.858 18.8442 C 223.853 20.165 223.848 21.4857 223.875 22.8065 C 223.879 23.0236 223.883 23.2408 223.887 23.458 V 23.4581 V 23.4583 V 23.4584 V 23.4585 V 23.4586 V 23.4588 C 223.912 24.8046 223.936 26.1515 224.064 27.4851 C 224.173 28.6166 224.949 29.3664 225.992 29.7885 C 227.766 30.5069 229.545 30.2285 231.311 29.7346 C 231.464 29.6897 231.631 29.3889 231.64 29.2003 C 231.663 28.5232 231.66 27.846 231.656 27.1601 C 231.655 26.909 231.654 26.6568 231.654 26.403 C 231.434 26.403 231.221 26.4035 231.012 26.404 C 230.604 26.405 230.211 26.406 229.821 26.403 C 229.166 26.3985 228.557 26.0214 228.484 25.5095 C 228.399 24.9392 228.358 24.36 228.353 23.7853 C 228.348 23.1331 228.357 22.4793 228.366 21.8258 V 21.8252 V 21.8245 V 21.8239 V 21.8233 V 21.8227 V 21.8221 C 228.373 21.3881 228.379 20.9542 228.38 20.521 C 228.383 19.8963 228.383 19.2734 228.382 18.632 V 18.6253 V 18.6111 C 228.381 18.2866 228.38 17.9573 228.38 17.6205 C 228.471 17.6205 228.555 17.621 228.633 17.6215 C 228.778 17.6225 228.905 17.6234 229.031 17.6205 C 229.3 17.6156 229.569 17.6083 229.838 17.601 L 229.839 17.601 C 230.308 17.5883 230.777 17.5756 231.247 17.5756 C 231.676 17.5756 231.803 17.3376 231.798 16.9739 C 231.797 16.6906 231.792 16.408 231.788 16.1257 V 16.1256 V 16.1254 V 16.1253 V 16.1252 V 16.125 V 16.1249 C 231.781 15.6333 231.774 15.1429 231.78 14.6525 C 231.785 14.2529 231.613 14.1362 231.234 14.1452 C 230.588 14.1577 229.942 14.1549 229.285 14.1521 Z M 37.32 19.9059 L 37.32 19.9058 C 37.3286 19.7412 37.3373 19.5721 37.3373 19.3985 C 37.4223 19.4261 37.5987 19.4879 37.8465 19.5749 C 39.4555 20.1393 44.0755 21.76 46.231 21.904 C 50.6626 22.1785 56.5768 21.1839 58.8315 20.8047 C 59.3055 20.725 59.6178 20.6725 59.7206 20.6647 C 60.0546 20.6423 60.2442 20.5031 60.2262 20.1169 C 60.2075 19.7633 60.2054 19.4078 60.2034 19.0523 C 60.2 18.4643 60.1966 17.8764 60.1178 17.2972 C 60.0923 17.107 60.0681 16.9163 60.0439 16.7256 C 59.8929 15.5341 59.7414 14.3388 59.251 13.2202 C 59.1857 13.0717 59.1204 12.9218 59.0546 12.7708 L 59.0545 12.7707 C 58.5791 11.68 58.082 10.5395 57.4317 9.56528 C 56.7319 8.5191 54.4791 7.00595 53.662 6.56592 C 52.1709 5.76485 50.5211 5.47119 48.882 5.17942 C 48.7295 5.15229 48.5772 5.12518 48.4251 5.09767 C 47.2333 4.88215 39.3644 4.32089 36.7143 4.32089 C 35.4006 4.32089 32.4526 4.84174 30.9312 5.87445 C 28.9132 7.24392 27.2563 10.5172 27.2608 12.6006 C 27.2653 14.9399 27.9109 19.3222 28.1728 20.0361 C 28.5565 21.0823 29.0035 22.115 29.5271 23.0983 C 29.9794 23.9547 30.5406 24.761 31.0976 25.5615 L 31.0977 25.5616 L 31.1614 25.6532 C 31.4165 26.0175 31.7143 26.3559 32.0118 26.694 L 32.0119 26.6941 L 32.0119 26.6941 C 32.125 26.8227 32.2381 26.9511 32.3487 27.081 C 32.8228 27.6423 34.8769 29.573 35.3238 29.8783 C 35.6365 30.0927 36.0713 30.4335 36.5248 30.789 L 36.5249 30.7891 L 36.5253 30.7894 L 36.5254 30.7894 C 37.1258 31.2601 37.7592 31.7566 38.1861 32.0201 C 39.5179 32.8417 43.3011 34.997 47.2468 34.997 C 48.0143 34.997 48.7818 34.8937 49.5267 34.7276 C 51.6079 34.3818 54.2263 33.0932 55.2511 32.4017 C 56.4294 31.607 57.4181 30.691 58.0998 29.3979 C 58.8808 27.9161 59.4903 26.412 59.5716 24.7327 C 59.5806 24.6294 59.4136 24.4319 59.3187 24.4274 C 59.0027 24.4049 58.6822 24.4274 58.3662 24.4723 C 57.6822 24.5666 56.9993 24.6665 56.3165 24.7664 C 55.6337 24.8663 54.9509 24.9662 54.267 25.0605 C 53.7882 25.1267 53.3072 25.1752 52.8631 25.22 L 52.863 25.22 L 52.8623 25.2201 L 52.8607 25.2202 C 52.6733 25.2391 52.4925 25.2574 52.3212 25.276 C 52.19 25.5074 52.0661 25.7367 51.9441 25.9625 L 51.9439 25.9629 L 51.9434 25.9638 L 51.9432 25.9642 L 51.9431 25.9643 L 51.9431 25.9644 L 51.9431 25.9645 C 51.6583 26.4916 51.3842 26.9991 51.0526 27.4671 C 50.4973 28.2529 49.6802 28.8142 48.7953 29.1509 C 48.1451 29.395 47.4005 29.4349 46.6867 29.4731 L 46.5832 29.4787 C 45.2378 29.5505 42.3079 28.3158 42.0686 28.1811 C 40.3621 27.2112 38.9581 25.936 38.2402 24.0906 C 37.8385 23.0669 37.5947 21.9758 37.3554 20.8982 C 37.2848 20.5866 37.3019 20.2563 37.32 19.9059 Z M 40.3632 10.0189 C 40.4399 10.0211 40.5163 10.0233 40.5923 10.0233 C 40.5934 10.0255 40.8068 10.0344 41.1384 10.0483 L 41.1386 10.0483 L 41.1386 10.0483 L 41.1387 10.0483 C 42.1597 10.0912 44.3012 10.181 44.8225 10.2657 C 45.5358 10.3914 46.2491 10.5127 46.9669 10.6115 C 47.9601 10.7507 48.8946 11.0201 49.6892 11.6442 C 50.407 12.2099 50.8043 12.9912 51.1113 13.8263 C 51.3731 14.5358 51.6079 15.2407 51.5988 16.0085 C 51.5988 16.2734 51.5311 16.3677 51.2332 16.4485 C 50.286 16.7106 49.3226 16.7253 48.3623 16.7399 C 48.1874 16.7426 48.0127 16.7452 47.8382 16.7494 C 46.5154 16.7808 40.8361 16.1522 40.2357 16.013 C 39.1522 15.7616 38.0913 15.4338 37.5495 14.3427 C 37.4186 14.0778 37.3419 13.7051 37.4141 13.4267 L 37.4379 13.3348 C 37.6559 12.4927 37.8793 11.6294 38.2583 10.8539 C 38.5382 10.2882 39.2154 10.0951 39.8565 10.0278 C 40.0242 10.0092 40.1941 10.0141 40.3632 10.0189 Z M 8.11538 7.61864 L 8.11541 7.61857 L 8.11541 7.61856 L 8.11542 7.61856 L 8.11542 7.61855 C 8.33113 7.16691 8.54699 6.71496 8.80605 6.28756 C 9.5239 5.11117 10.2959 3.99314 11.6233 3.34657 C 12.1776 3.07486 12.7389 3.02417 13.301 2.97341 C 13.3798 2.9663 13.4587 2.95918 13.5375 2.95145 C 13.9053 2.91699 15.3491 2.94199 16.5995 2.96364 C 17.4674 2.97866 18.2421 2.99207 18.4992 2.98288 C 18.9823 2.96492 19.0997 3.1086 19.0997 3.59801 C 19.0997 4.22686 18.7337 5.74081 18.3773 7.21535 L 18.3773 7.21537 C 18.0389 8.61509 17.7091 9.9793 17.7091 10.5172 C 17.6114 10.5172 17.5094 10.523 17.4055 10.529 C 17.1685 10.5426 16.921 10.5568 16.6888 10.5037 C 16.1064 10.369 14.0161 10.4005 13.4201 10.4543 C 12.4811 10.5352 11.6503 10.854 10.8241 11.2491 C 10.2056 11.5454 9.74963 12.0169 9.37491 12.5916 C 8.65706 13.6917 8.50356 14.9489 8.39521 16.2016 C 8.34203 16.8186 8.35845 17.4414 8.37489 18.0649 L 8.37489 18.0649 C 8.38357 18.3943 8.39226 18.7238 8.3907 19.0528 C 8.38872 19.456 8.38068 19.8592 8.37264 20.262 V 20.262 V 20.262 V 20.262 C 8.36233 20.7788 8.35204 21.295 8.35458 21.8097 C 8.35888 22.308 8.37342 22.8052 8.38796 23.3024 L 8.38796 23.3024 C 8.40395 23.8492 8.41993 24.3959 8.4223 24.9438 C 8.42456 25.3366 8.41214 25.7295 8.39973 26.1224 L 8.39972 26.1224 L 8.39972 26.1224 C 8.38731 26.5153 8.37489 26.9082 8.37715 27.3011 C 8.37966 27.7725 8.3961 28.244 8.41254 28.7154 C 8.4257 29.0926 8.43885 29.4698 8.44487 29.8469 C 8.45164 30.2488 8.45164 30.6506 8.45164 31.0531 C 8.45164 31.4555 8.45164 31.8585 8.45842 32.2626 C 8.46577 32.6502 8.18566 32.6328 7.98388 32.6203 H 7.98385 H 7.98382 H 7.98379 C 7.93784 32.6174 7.89596 32.6148 7.86247 32.6173 C 7.11369 32.6629 5.28023 32.54 3.85296 32.4443 C 3.03413 32.3893 2.349 32.3434 2.07907 32.3434 C 1.98 32.3434 1.88092 32.3335 1.74865 32.3202 L 1.7482 32.3202 C 1.68168 32.3135 1.60676 32.306 1.51924 32.2985 C 1.51924 31.9134 1.52154 31.6369 1.52382 31.3629 C 1.52605 31.0937 1.52827 30.8269 1.52827 30.4621 V 30.462 C 1.52827 29.1554 1.52827 27.8443 1.52376 26.5377 C 1.52376 25.6936 1.52376 24.8495 1.51021 24.0009 C 1.4998 23.4892 1.48362 22.9766 1.46743 22.4639 C 1.44854 21.8653 1.42964 21.2666 1.41992 20.6692 C 1.4123 20.2802 1.41754 19.8898 1.42278 19.4995 C 1.42685 19.1961 1.43092 18.8928 1.42895 18.5903 C 1.42623 18.2562 1.42388 17.922 1.42152 17.5875 C 1.41214 16.2545 1.40274 14.9192 1.37025 13.5839 C 1.32059 11.294 1.24836 9.00854 1.1716 6.7231 C 1.13549 5.67691 1.07228 4.63073 1.00004 3.58454 C 0.981985 3.31514 1.08582 3.22534 1.33414 3.22534 L 1.86875 3.22938 H 1.86877 H 1.86878 H 1.8688 C 2.93656 3.23762 4.00386 3.24586 5.06784 3.23432 C 5.37525 3.23022 5.68361 3.21111 5.99205 3.192 L 5.99207 3.192 C 6.35856 3.16929 6.72517 3.14657 7.09045 3.14901 C 7.22137 3.14901 7.45163 3.38249 7.46066 3.52168 C 7.498 4.13723 7.51486 4.75277 7.53172 5.36832 L 7.53172 5.36841 C 7.54339 5.79453 7.55506 6.22065 7.57352 6.64677 C 7.58857 7.01195 7.62369 7.37714 7.6588 7.74233 L 7.6588 7.74234 V 7.74234 V 7.74235 C 7.67636 7.92494 7.69392 8.10754 7.70897 8.29013 C 7.72477 8.28564 7.73944 8.28227 7.75411 8.27891 L 7.75416 8.27889 L 7.75417 8.27889 C 7.76883 8.27553 7.78348 8.27216 7.79926 8.26768 C 7.9078 8.05326 8.01157 7.83599 8.11537 7.61865 L 8.11538 7.61864 Z M 24.8295 28.0763 L 24.7743 26.9643 C 24.6223 26.933 24.4679 26.8983 24.3116 26.8632 L 24.3116 26.8632 L 24.3115 26.8632 C 23.9295 26.7773 23.5359 26.6888 23.1354 26.641 C 22.1746 26.5192 21.2116 26.4127 20.2495 26.3062 L 20.2493 26.3061 L 20.2487 26.3061 L 20.2478 26.306 C 19.8271 26.2594 19.4065 26.2129 18.9864 26.1651 C 18.849 26.1489 18.7114 26.1332 18.5738 26.1174 L 18.5729 26.1173 L 18.572 26.1172 L 18.5719 26.1172 C 18.0993 26.0632 17.6259 26.009 17.1579 25.9361 C 16.738 25.8687 16.5439 26.0438 16.5484 26.439 C 16.5574 27.2337 16.5755 28.0285 16.6071 28.8232 C 16.6195 29.1197 16.6424 29.4153 16.6653 29.7108 C 16.6923 30.0596 16.7192 30.4084 16.729 30.7584 C 16.7445 31.3177 16.7409 31.8792 16.7371 32.4744 C 16.7353 32.7488 16.7335 33.0304 16.7335 33.3222 C 16.9523 33.3222 17.1588 33.318 17.3569 33.314 C 17.7719 33.3055 18.1499 33.2978 18.5259 33.3312 C 19.5584 33.4192 20.5898 33.5175 21.6207 33.6156 C 22.6406 33.7128 23.6601 33.8099 24.6795 33.897 C 24.7924 33.9059 25.0136 33.7308 25.0316 33.6186 C 25.0784 33.3141 25.0651 32.9976 25.0521 32.6879 L 25.0497 32.6308 C 24.9806 31.12 24.9057 29.6121 24.8297 28.0813 L 24.8295 28.0768 L 24.8295 28.0763 Z M 63.8152 26.2682 C 64.2911 26.2525 64.7559 26.2389 65.2144 26.2254 C 65.9349 26.2042 66.6395 26.1834 67.3458 26.156 C 67.9733 26.1335 68.6054 26.0976 69.2284 26.0348 C 69.5986 25.9988 69.707 26.1246 69.716 26.4838 C 69.7474 28.0398 69.7966 29.5915 69.8459 31.1475 V 31.1478 L 69.847 31.1804 C 69.865 31.7551 69.8831 32.3254 69.9147 32.9001 C 69.9373 33.2862 69.8154 33.4838 69.3774 33.5017 C 68.5829 33.5311 67.7893 33.5673 66.9957 33.6035 L 66.9955 33.6035 C 66.0893 33.6448 65.1832 33.6862 64.2758 33.7173 C 64.1674 33.7218 63.9597 33.5197 63.9552 33.4075 C 63.9159 32.5892 63.8956 31.7685 63.8753 30.949 L 63.8753 30.9485 V 30.9485 C 63.8677 30.6394 63.86 30.3305 63.8514 30.0219 C 63.8406 29.6349 63.8284 29.2479 63.8162 28.8607 L 63.8162 28.8596 C 63.7977 28.2722 63.7792 27.6841 63.7656 27.0944 C 63.7656 26.9318 63.7783 26.7691 63.7923 26.5915 V 26.5915 C 63.8003 26.4896 63.8087 26.3828 63.8152 26.2682 Z M 120.855 25.754 C 120.692 25.7552 120.527 25.7564 120.36 25.7564 C 120.36 26.1175 120.359 26.4455 120.358 26.7589 C 120.357 27.0458 120.356 27.3206 120.356 27.5974 C 120.36 28.1193 120.368 28.6416 120.375 29.1642 C 120.392 30.3408 120.409 31.5183 120.388 32.6936 C 120.378 33.1471 120.546 33.2189 120.898 33.2234 C 121.282 33.2294 121.666 33.2341 122.05 33.2388 C 123.109 33.2517 124.166 33.2647 125.223 33.3042 C 125.647 33.3177 125.755 33.1785 125.751 32.7969 C 125.74 32.0336 125.737 31.2721 125.735 30.5101 C 125.733 30.0529 125.732 29.5955 125.728 29.1375 C 125.719 28.1586 125.706 27.1843 125.692 26.2099 C 125.692 25.963 125.62 25.8687 125.308 25.8687 C 124.612 25.8659 123.917 25.8368 123.222 25.8077 C 122.804 25.7902 122.386 25.7727 121.968 25.7609 C 121.599 25.7484 121.231 25.7512 120.855 25.754 Z" fill="#fff"/>
</svg>